<?xml version="1.0" encoding="UTF-8" standalone="no"?>
<!-- Created with Inkscape (http://www.inkscape.org/) -->

<svg
   width="1920"
   height="1080"
   viewBox="0 0 1920 1080"
   version="1.1"
   id="svg5"
   inkscape:version="1.1.2 (76b9e6a115, 2022-02-25)"
   sodipodi:docname="back.svg"
   xmlns:inkscape="http://www.inkscape.org/namespaces/inkscape"
   xmlns:sodipodi="http://sodipodi.sourceforge.net/DTD/sodipodi-0.dtd"
   xmlns="http://www.w3.org/2000/svg"
   xmlns:svg="http://www.w3.org/2000/svg">
  <sodipodi:namedview
     id="namedview7"
     pagecolor="#ffffff"
     bordercolor="#666666"
     borderopacity="1.0"
     inkscape:pageshadow="2"
     inkscape:pageopacity="0.0"
     inkscape:pagecheckerboard="0"
     inkscape:document-units="px"
     showgrid="false"
     inkscape:zoom="0.73952369"
     inkscape:cx="495.58926"
     inkscape:cy="98.036075"
     inkscape:window-width="1366"
     inkscape:window-height="704"
     inkscape:window-x="0"
     inkscape:window-y="27"
     inkscape:window-maximized="1"
     inkscape:current-layer="layer1" />
  <defs
     id="defs2" />
  <g
     inkscape:label="Calque 1"
     inkscape:groupmode="layer"
     id="layer1">
    <rect
       style="fill:#1a1a1a;stroke-width:0.289661"
       id="rect405"
       width="227.64983"
       height="3"
       x="-212.36125"
       y="138.16901"
       transform="matrix(0.64665338,-0.76278398,0.99613155,0.08787458,0,0)" />
    <rect
       style="fill:#1a1a1a;stroke-width:0.476292;image-rendering:auto"
       id="rect611"
       width="373.6384"
       height="3"
       x="-348.03546"
       y="227.06839"
       transform="matrix(0.64906894,-0.76072959,0.99618066,0.08731606,0,0)" />
    <rect
       style="fill:#1a1a1a;stroke-width:0.70073"
       id="rect715"
       width="540.38007"
       height="3"
       x="-503.31396"
       y="338.42789"
       transform="matrix(0.67195773,-0.7405895,0.99662038,0.08214514,0,0)" />
    <rect
       style="fill:#1a1a1a;stroke-width:0.935097"
       id="rect739"
       width="724.10382"
       height="3"
       x="-675.06915"
       y="453.16949"
       transform="matrix(0.66635474,-0.74563487,0.99651686,0.08339152,0,0)" />
    <rect
       style="fill:#1a1a1a;stroke-width:1.18984"
       id="rect901"
       width="915.96594"
       height="3"
       x="-851.85394"
       y="568.44727"
       transform="matrix(0.67433552,-0.73842509,0.99666354,0.0816198,0,0)" />
    <rect
       style="fill:#1a1a1a;stroke-width:1.45569"
       id="rect903"
       width="1114.4268"
       height="3"
       x="-1036.0559"
       y="699.70337"
       transform="matrix(0.68194669,-0.73140188,0.99679871,0.07995206,0,0)" />
    <rect
       style="fill:#1a1a1a;stroke-width:1.75406"
       id="rect905"
       width="1335.2972"
       height="3"
       x="-1236.8771"
       y="850.13129"
       transform="matrix(0.68978471,-0.72401454,0.99693331,0.07825577,0,0)" />
    <rect
       style="fill:#1a1a1a;stroke-width:2.02402"
       id="rect907"
       width="1539.0305"
       height="3"
       x="-1417.6614"
       y="1009.8957"
       transform="matrix(0.69139892,-0.72247321,0.99696048,0.07790898,0,0)" />
    <rect
       style="fill:#1a1a1a;stroke-width:2.02402"
       id="rect909"
       width="1539.0305"
       height="3"
       x="-1391.4512"
       y="1215.8514"
       transform="matrix(0.69139892,-0.72247321,0.99696048,0.07790898,0,0)" />
    <rect
       style="fill:#1a1a1a;stroke-width:2.02402"
       id="rect911"
       width="1539.0305"
       height="3"
       x="-1369.5763"
       y="1459.6365"
       transform="matrix(0.69139892,-0.72247321,0.99696048,0.07790898,0,0)" />
    <rect
       style="fill:#1a1a1a;stroke-width:2.02402"
       id="rect913"
       width="1539.0305"
       height="3"
       x="-1336.5508"
       y="1714.6307"
       transform="matrix(0.69139892,-0.72247321,0.99696048,0.07790898,0,0)" />
    <rect
       style="fill:#1a1a1a;stroke-width:2.02402"
       id="rect915"
       width="1539.0305"
       height="3"
       x="-1354.5386"
       y="1972.6093"
       transform="matrix(0.69139892,-0.72247321,0.99696048,0.07790898,0,0)" />
    <rect
       style="fill:#1a1a1a;stroke-width:2.02402"
       id="rect917"
       width="1539.0305"
       height="3"
       x="-1496.2124"
       y="2219.7861"
       transform="matrix(0.69139892,-0.72247321,0.99696048,0.07790898,0,0)" />
    <rect
       style="fill:#1a1a1a;stroke-width:2.02402"
       id="rect919"
       width="1539.0305"
       height="3"
       x="-1623.5293"
       y="2480.6023"
       transform="matrix(0.69139892,-0.72247321,0.99696048,0.07790898,0,0)" />
  </g>
</svg>
